#!OML:ASF E:\emotionWalksFemale\Project 1\Capture day 1\Session 1\Female1.ASF
:FULLY-SPECIFIED
:DEGREES
189
root 8.78195 11.892 23.4873 -135.342 -3.27282 -179.902
lowerback 41.8596 0.930637 1.06932
upperback 1.5578 0.601834 -0.317335
thorax -18.7418 -0.262565 -1.09352
lowerneck -12.2615 -2.37807 -5.3859
upperneck -23.0146 -4.82482 7.82016
head -4.68326 -3.94363 3.5315
rclavicle 4.96962e-015 -1.23246e-014
rhumerus 10.3849 63.4472 -7.49292
rradius 90.5624
rwrist -4.14592
rhand -10.276 -47.6341
rfingers 7.12502
rthumb 15.7179 -77.0158
lclavicle 4.96962e-015 -1.23246e-014
lhumerus -62.4131 -44.3754 68.3735
lradius 79.2034
lwrist 14.753
lhand -18.7882 -55.0034
lfingers 7.12502
lthumb 7.50964 -25.1567
rfemur -97.5267 -2.12668 31.0467
rtibia 94.3017
rfoot -35.2303 -16.8393
rtoes -5.20774
lfemur -99.8593 0.942062 -26.7858
ltibia 91.4092
lfoot -38.6471 -1.46436
ltoes -34.0227
190
root 8.78385 11.8809 23.4535 -135.215 -3.34434 -179.875
lowerback 41.8995 0.957736 0.9977
upperback 1.6283 0.598008 -0.267988
thorax -18.6682 -0.260356 -0.995853
lowerneck -12.3911 -2.32511 -5.3816
upperneck -22.9916 -4.74445 7.89477
head -4.65872 -3.9119 3.55156
rclavicle -4.57205e-015 -6.4605e-015
rhumerus 9.76493 63.9409 -6.40967
rradius 91.2385
rwrist -4.81865
rhand -9.63576 -47.3051
rfingers 7.12502
rthumb 16.3344 -76.6372
lclavicle -4.57205e-015 -6.4605e-015
lhumerus -64.4872 -43.3867 68.8344
lradius 78.6551
lwrist 13.7622
lhand -18.1511 -53.4609
lfingers 7.12502
lthumb 8.1245 -23.6371
rfemur -97.6709 -2.13993 31.179
rtibia 94.6349
rfoot -35.1645 -17.149
rtoes -6.04276
lfemur -99.9726 0.984378 -26.8849
ltibia 91.6536
lfoot -38.5623 -1.41151
ltoes -33.9809
191
root 8.78649 11.8655 23.4198 -135.031 -3.39982 -179.945
lowerback 41.8353 0.943931 0.79078
upperback 1.71637 0.461233 -0.304908
thorax -18.5397 -0.303199 -0.857545
lowerneck -12.771 -2.15344 -4.98651
upperneck -22.8046 -4.55622 7.84158
head -4.56452 -3.84764 3.45433
rclavicle 3.57812e-015 -1.54058e-015
rhumerus 9.43837 64.327 -5.06279
rradius 92.0321
rwrist -5.82514
rhand -8.89554 -46.7017
rfingers 7.12502
rthumb 17.047 -75.9738
lclavicle 3.57812e-015 -1.54058e-015
lhumerus -65.8505 -41.3215 69.2526
lradius 77.1153
lwrist 11.658
lhand -20.9186 -59.8574
lfingers 7.12502
lthumb 5.45291 -29.9476
rfemur -97.9493 -2.21899 31.2487
rtibia 95.0286
rfoot -35.2198 -16.9815
rtoes -6.4455
lfemur -100.162 0.957293 -27.1408
ltibia 91.8995
lfoot -38.5965 -1.08734
ltoes -34.3961
192
root 8.8 11.8577 23.3773 -134.969 -3.03946 -179.552
lowerback 41.6952 1.44231 0.569478
upperback 1.68759 1.01956 -0.213538
thorax -18.5197 -0.0524797 -0.919654
lowerneck -12.0262 -2.41995 -5.53128
upperneck -23.0107 -4.78023 8.07585
head -4.70519 -3.90252 3.64102
rclavicle 2.18663e-015 -3.77691e-015
rhumerus 5.08752 65.2205 -7.85912
rradius 91.9964
rwrist -5.42529
rhand -7.99929 -45.6829
rfingers 7.12502
rthumb 17.9095 -74.8783
lclavicle 2.18663e-015 -3.77691e-015
lhumerus -68.7511 -42.0335 69.9994
lradius 77.4743
lwrist 11.3728
lhand -22.2057 -62.2777
lfingers 7.12502
lthumb 4.21018 -32.3396
rfemur -97.8806 -1.64582 31.4049
rtibia 95.2825
rfoot -35.2403 -16.6719
rtoes -6.26027
lfemur -100.25 1.72558 -27.4359
ltibia 92.219
lfoot -38.9575 -0.527456
ltoes -35.6171
193
root 8.78796 11.8432 23.3517 -134.853 -3.55872 -179.928
lowerback 41.8761 1.1135 1.18152
upperback 1.59117 0.918812 -0.171903
thorax -18.6964 -0.136926 -1.14833
lowerneck -11.5623 -2.60964 -6.03613
upperneck -23.0644 -4.91518 8.34296
head -4.76022 -3.92044 3.82096
rclavicle -1.19271e-014 1.36167e-014
rhumerus 2.44813 66.0124 -8.23136
rradius 92.7425
rwrist -5.97178
rhand -7.53347 -45.2901
rfingers 7.12502
rthumb 18.3577 -74.4438
lclavicle -1.19271e-014 1.36167e-014
lhumerus -73.3274 -43.9832 70.5538
lradius 79.7341
lwrist 12.4684
lhand -22.2146 -61.2393
lfingers 7.12502
lthumb 4.2015 -31.301
rfemur -98.224 -2.41658 31.5376
rtibia 95.6496
rfoot -35.3321 -16.2029
rtoes -5.56605
lfemur -100.227 1.05445 -27.704
ltibia 92.283
lfoot -38.9383 -0.15565
ltoes -35.4097
194
root 8.79126 11.8359 23.3215 -134.752 -3.63993 -179.828
lowerback 42.0152 1.26951 1.47043
upperback 1.46862 1.31413 0.00795483
thorax -18.8867 0.00888767 -1.30096
lowerneck -10.718 -3.01598 -7.10315
upperneck -23.3148 -5.27989 8.83249
head -4.89527 -4.01976 4.18344
rclavicle -6.36111e-015 6.55989e-015
rhumerus -0.801706 66.8703 -8.96037
rradius 93.3652
rwrist -6.60612
rhand -7.13483 -45.0408
rfingers 7.12502
rthumb 18.7411 -74.158
lclavicle -6.36111e-015 6.55989e-015
lhumerus -76.0952 -43.7604 71.8165
lradius 79.6194
lwrist 11.5534
lhand -22.0688 -60.9043
lfingers 7.12502
lthumb 4.34237 -30.9688
rfemur -98.2855 -2.40395 31.7548
rtibia 95.8673
rfoot -35.3053 -16.0282
rtoes -5.02782
lfemur -100.33 1.19014 -27.8753
ltibia 92.471
lfoot -38.9638 -0.518513
ltoes -33.3797
